<?xml version="1.0" encoding="utf-8"?>
<!-- Generator: Adobe Illustrator 23.0.6, SVG Export Plug-In . SVG Version: 6.00 Build 0)  -->
<svg version="1.1" id="Ebene_1" xmlns="http://www.w3.org/2000/svg" xmlns:xlink="http://www.w3.org/1999/xlink" x="0px" y="0px"
	 viewBox="0 0 595.3 196.4" style="enable-background:new 0 0 595.3 196.4;" xml:space="preserve">
<style type="text/css">
	.st0{fill:#50AF47;}
	.st1{fill:#D5D800;}
	.st2{fill:#4B4A4B;}
</style>
<path class="st0" d="M235,97.6c0-47.7-33.7-87.6-78.5-97.1c34.2,18.6,57.4,54.9,57.4,96.5c0,43.2-24.9,80.5-61.1,98.5
	C199.5,187.4,235,146.6,235,97.6"/>
<path class="st1" d="M272.6,97.6c0-47.7-33.7-87.6-78.5-97.1c34.2,18.6,57.4,54.9,57.4,96.5c0,43.2-24.9,80.5-61.1,98.5
	C237.1,187.4,272.6,146.6,272.6,97.6"/>
<g>
	<path class="st2" d="M98.3-0.5C43.9-0.5-0.1,43.6-0.1,97.9c0,54.4,44.1,98.4,98.4,98.4c54.4,0,98.4-44.1,98.4-98.4
		C196.7,43.6,152.6-0.5,98.3-0.5z M92.2,130c-7.4,6.8-18.2,11-28.2,11c-26.9,0-43-21.5-43-42.2C21,78,37.1,56.5,64,56.5
		c10.2,0,21,4,28,10.5l2.5,2.3l-10.9,12L81,79c-4.8-4.4-10.9-6.9-17-6.9c-14.5,0-26.2,11.9-26.2,26.6c0,16.4,13.6,26.6,26.2,26.6
		c6.8,0,12.6-2.3,17.6-7.1l2.5-2.4l10.5,12L92.2,130z M132.6,139.4c-26.9,0-43-21.5-43-42.2s16.1-42.2,43-42.2
		c26.9,0,43,21.5,43,42.2S159.5,139.4,132.6,139.4z"/>
	<path class="st2" d="M132.6,70.6c-12.9,0-26.2,9.9-26.2,26.6s13.3,26.6,26.2,26.6s26.2-9.9,26.2-26.6S145.5,70.6,132.6,70.6z"/>
</g>
<g>
	<g>
		<path class="st2" d="M557,138.1c-27.4,0-41.8-20.3-41.8-40.3c0-22.9,17.1-40.1,39.7-40.1c23.7,0,40.3,18.5,40.3,45v2.5h-61
			c2.8,9.8,11.6,16.2,22.7,16.2c7.9,0,15.2-3.7,21.2-10.7l1.6-1.9l13.6,10.8l-1.8,2C581.2,132.9,570.3,138.1,557,138.1z
			 M442.3,138.1c-27.4,0-41.8-20.3-41.8-40.3c0-22.9,17.1-40.1,39.7-40.1c23.7,0,40.3,18.5,40.3,45v2.5h-61
			c2.8,9.8,11.6,16.2,22.7,16.2c7.9,0,15.2-3.7,21.2-10.7l1.6-1.9l13.5,10.8l-1.8,2C466.5,132.9,455.6,138.1,442.3,138.1z M534,90
			h41.5c-2.2-9.3-10.4-15.5-20.8-15.5C542.3,74.4,536,82.3,534,90z M419.3,90h41.5c-2.2-9.3-10.4-15.5-20.8-15.5
			C427.6,74.4,421.3,82.3,419.3,90z"/>
	</g>
	<path class="st2" d="M333.7,138.1c-21.7,0-35.6-9.6-36.2-25.1l-0.1-2.6h19.3l0.3,2.2c0.9,7,9.2,9.6,16,9.6
		c11.2,0,15.1-4.2,15.1-7.8c0-2.3-1.1-5-13.8-7.8l-15.6-3.5c-16.7-3.7-20.2-13.4-20.2-21c0-12.1,10.7-24.4,34.4-24.4
		c24.5,0,33.3,12.9,33.3,24.9v2.5h-19.1l-0.3-2.2c-1-7-5.3-10-14.1-10c-7.8,0-13.6,3.4-13.6,7.8c0,1.2,0,4.4,8,6.2L348,92
		c14.3,3.4,20.7,9.9,20.7,21.3C368.7,129.6,351.1,138.1,333.7,138.1z"/>
</g>
</svg>
